<?xml version="1.0" encoding="utf-8"?>
<!-- Generator: Adobe Illustrator 16.0.0, SVG Export Plug-In . SVG Version: 6.00 Build 0)  -->
<!DOCTYPE svg PUBLIC "-//W3C//DTD SVG 1.1//EN" "http://www.w3.org/Graphics/SVG/1.1/DTD/svg11.dtd">
<svg version="1.1" id="图层_1" xmlns="http://www.w3.org/2000/svg" xmlns:xlink="http://www.w3.org/1999/xlink" x="0px" y="0px"
	 width="118px" height="118px" viewBox="0 0 118 118" enable-background="new 0 0 118 118" xml:space="preserve">
<g id="过敏">
	<g>
		<path fill-rule="evenodd" clip-rule="evenodd" fill="#C44A83" d="M77.59,82.193h-7.509c-2.89,0-5.243,2.622-5.243,5.853v2.051
			h9.19c2.884,0,5.23-2.627,5.233-5.86v-1.72c-0.507-0.206-1.036-0.316-1.576-0.329C77.652,82.19,77.626,82.193,77.59,82.193z
			 M47.928,82.19h-7.512c-0.57,0-1.129,0.107-1.678,0.326v1.726c0,3.225,2.347,5.852,5.23,5.852h9.193v-2.045
			C53.162,84.818,50.814,82.19,47.928,82.19z M59.5,43.413c-4.075,0-7.387,3.317-7.387,7.39s3.314,7.384,7.387,7.384
			c4.075,0,7.39-3.312,7.39-7.384S63.575,43.413,59.5,43.413z M78.056,45.623l-2.37-1.123c-0.514-0.248-0.765-0.848-0.57-1.391
			l0.89-2.47c0.72-2.045,0.238-4.257-1.272-5.769c-1.483-1.483-3.785-1.982-5.765-1.266l-2.479,0.881
			c-0.552,0.191-1.146-0.057-1.392-0.576l-1.119-2.371c-0.932-1.958-2.839-3.18-4.978-3.18c-2.138,0-4.042,1.216-4.974,3.177
			l-1.123,2.371c-0.244,0.522-0.848,0.773-1.388,0.576l-2.473-0.881c-1.97-0.708-4.272-0.221-5.765,1.269
			c-1.511,1.517-1.998,3.729-1.27,5.771l0.879,2.467c0.193,0.54-0.055,1.143-0.574,1.391l-2.37,1.126
			c-1.962,0.928-3.18,2.83-3.18,4.971c0,2.138,1.218,4.046,3.18,4.975l2.37,1.119c0.517,0.248,0.768,0.845,0.574,1.389l-0.881,2.469
			c-0.729,2.049-0.242,4.258,1.271,5.763c1.486,1.489,3.756,1.982,5.771,1.274l2.469-0.887c0.123-0.042,0.25-0.063,0.376-0.063
			c0.421,0,0.824,0.235,1.013,0.642l1.122,2.374c0.926,1.958,2.831,3.171,4.968,3.171c2.141,0,4.049-1.219,4.978-3.177l1.119-2.365
			c0.245-0.517,0.845-0.764,1.389-0.576l2.476,0.89c2.003,0.699,4.281,0.206,5.765-1.277c1.511-1.508,1.994-3.718,1.271-5.769
			l-0.887-2.466c-0.193-0.541,0.052-1.141,0.573-1.389l2.371-1.125c1.962-0.929,3.18-2.834,3.18-4.972S80.015,46.555,78.056,45.623z
			 M59.494,63.835c-7.189,0-13.035-5.849-13.035-13.035s5.849-13.035,13.035-13.035c7.192,0,13.041,5.849,13.041,13.035
			C72.535,57.989,66.689,63.835,59.494,63.835z M59,0C26.415,0,0,26.415,0,59s26.415,59,59,59s59-26.415,59-59S91.585,0,59,0z
			 M57.846,93.757c0,0.564-0.457,1.021-1.021,1.021H43.969c-5.47,0-9.918-4.727-9.918-10.542v-1.902
			c0-0.328,0.018-1.129,0.047-1.932c0.012-0.302,0.15-0.576,0.383-0.761c1.746-1.4,3.798-2.135,5.933-2.135h7.512
			c5.466,0,9.921,4.726,9.921,10.536V93.757z M83.946,84.242c0,5.816-4.448,10.539-9.921,10.539H61.175
			c-0.564,0-1.021-0.46-1.021-1.021v-5.714c0-5.813,4.448-10.537,9.924-10.537h7.509c2.141,0,4.191,0.738,5.933,2.139
			c0.229,0.182,0.367,0.456,0.382,0.749c0.033,0.809,0.048,1.609,0.045,1.943V84.242z M81.116,59.754
			c0.925,3.64-0.104,7.548-2.765,10.199c-2.637,2.642-6.548,3.689-10.188,2.758c-1.907,3.225-5.406,5.262-9.165,5.262
			c-3.757,0-7.253-2.037-9.157-5.262c-3.634,0.932-7.551-0.116-10.196-2.758c-2.657-2.654-3.693-6.569-2.762-10.199
			c-3.219-1.908-5.255-5.404-5.255-9.157c0-3.818,1.988-7.249,5.255-9.166c-0.929-3.625,0.104-7.535,2.762-10.187
			c2.636-2.643,6.595-3.682,10.198-2.768c1.902-3.222,5.398-5.258,9.157-5.258c3.753,0,7.253,2.036,9.163,5.258
			c3.589-0.926,7.548,0.119,10.193,2.762c2.654,2.65,3.69,6.563,2.759,10.195c3.219,1.908,5.255,5.407,5.255,9.163
			C86.371,54.347,84.335,57.846,81.116,59.754z"/>
	</g>
</g>
</svg>
